<?xml version="1.0" encoding="UTF-8"?>
<svg id="Calque_2" data-name="Calque 2" xmlns="http://www.w3.org/2000/svg" viewBox="0 0 319.04 84.64">
  <defs>
    <style>
      .cls-1 {
        fill: #00c796;
      }

      .cls-2 {
        fill: #f3f4f6;
      }

      .cls-3 {
        fill: #1b263b;
      }
    </style>
  </defs>
  <g id="Calque_1-2" data-name="Calque 1">
    <path class="cls-3" d="M0,83.2V0h12.19v83.2H0ZM7.38,56.72l1.05-11.6c6.01,0,11.21-1.26,15.59-3.78,4.37-2.52,7.98-5.92,10.81-10.2,2.83-4.28,4.94-9.1,6.33-14.47,1.39-5.37,2.08-10.93,2.08-16.67h12.07c0,7.38-1.08,14.47-3.22,21.27-2.15,6.8-5.27,12.86-9.38,18.19s-9.12,9.54-15.06,12.63c-5.94,3.09-12.7,4.63-20.27,4.63ZM45.12,83.2l-21.09-40.55,10.55-5.98,24.73,46.52h-14.18Z"/>
    <path class="cls-3" d="M54.73,53.98c0-16.92,12.36-30.12,30.36-30.12s30.36,13.2,30.36,30.12-12.36,30.12-30.36,30.12-30.36-13.08-30.36-30.12ZM85.08,72.46c11.16,0,18.12-8.52,18.12-18.48s-6.96-18.6-18.12-18.6-18.24,8.64-18.24,18.6,7.08,18.48,18.24,18.48Z"/>
    <path class="cls-3" d="M142.98,23.74c8.04,0,14.4,3.6,18.36,9.24,3.96-5.64,9.96-9.24,17.76-9.24,12.72,0,22.8,9,22.8,23.52v35.52h-12v-34.8c0-7.2-4.32-12.6-11.4-12.6s-11.4,5.4-11.4,12.48v34.92h-12v-34.92c0-7.08-4.44-12.48-11.52-12.48s-11.4,5.4-11.4,12.48v34.92h-12v-35.64c0-14.52,10.2-23.4,22.8-23.4Z"/>
    <path class="cls-3" d="M220.77,12.29c0-4.2,3.24-7.2,7.44-7.2s7.44,3,7.44,7.2-3.24,7.2-7.44,7.2-7.44-3-7.44-7.2ZM222.21,27.04h12v57.6h-12V27.04Z"/>
    <path class="cls-1" d="M276.81,2.33h3.48l38.76,82.32h-13.68l-8.4-18.24h-37.2l-8.28,18.24h-13.44L276.81,2.33ZM291.69,54.88l-13.32-29.16-13.32,29.16h26.64Z"/>
    <g>
      <circle class="cls-3" cx="85.08" cy="53.98" r="9.7"/>
      <circle class="cls-2" cx="87.83" cy="50.83" r="3.15"/>
    </g>
  </g>
</svg>